<svg width="169" height="147" viewBox="0 0 169 147" fill="none" xmlns="http://www.w3.org/2000/svg">
<mask id="path-1-inside-1_449_749" fill="white">
<path d="M163.411 30.4031V25.3359H158.321V20.2688V15.2016H153.232V10.1345H148.143H143.053V5.06724H137.964H132.875V0H127.785H122.696H117.607H112.491V5.06724H107.402H102.313V10.1345H97.2234H92.134V15.2016H87.0446V20.2688V25.3359H81.9554V20.2688V15.2016H76.866V10.1345H71.7766H66.6874V5.06724H61.598H56.5087V0H51.3933H46.3039H41.2147H36.1253V5.06724H31.0359H25.9467V10.1345H20.8573H15.768V15.2016H10.6786V20.2688V25.3359H5.58924V30.4031V35.4704H0.5V40.5375V45.6047V50.6719V55.7649H5.58924V60.8321V65.8992V70.9665H10.6786V76.0337V81.1008H15.768H20.8573V86.168V91.2353H25.9467H31.0359V96.3023V101.37H36.1253H41.2147V106.437V111.504H46.3039H51.3933V116.597V121.664H56.5087H61.598V126.731V131.799H66.6874H71.7766V136.866V141.933H76.866H81.9554V147H87.0446V141.933H92.134H97.2234V136.866V131.799H102.313H107.402V126.731V121.664H112.491H117.607V116.597V111.504H122.696H127.785V106.437V101.37H132.875H137.964V96.3023V91.2353H143.053H148.143V86.168V81.1008H153.232H158.321V76.0337V70.9665H163.411V65.8992V60.8321V55.7649H168.5V50.6719V45.6047V40.5375V35.4704H163.411V30.4031ZM158.321 40.5375V45.6047V50.6719H153.232V45.6047V40.5375V35.4704H148.143V30.4031V25.3359H143.053H137.964V20.2688H132.875H127.785V15.2016H122.696H117.607V20.2688H112.491H107.402V15.2016H112.491H117.607V10.1345H122.696H127.785V15.2016H132.875H137.964V20.2688H143.053H148.143V25.3359H153.232V30.4031V35.4704H158.321V40.5375Z"/>
</mask>
<path d="M163.411 30.4031V25.3359H158.321V20.2688V15.2016H153.232V10.1345H148.143H143.053V5.06724H137.964H132.875V0H127.785H122.696H117.607H112.491V5.06724H107.402H102.313V10.1345H97.2234H92.134V15.2016H87.0446V20.2688V25.3359H81.9554V20.2688V15.2016H76.866V10.1345H71.7766H66.6874V5.06724H61.598H56.5087V0H51.3933H46.3039H41.2147H36.1253V5.06724H31.0359H25.9467V10.1345H20.8573H15.768V15.2016H10.6786V20.2688V25.3359H5.58924V30.4031V35.4704H0.5V40.5375V45.6047V50.6719V55.7649H5.58924V60.8321V65.8992V70.9665H10.6786V76.0337V81.1008H15.768H20.8573V86.168V91.2353H25.9467H31.0359V96.3023V101.37H36.1253H41.2147V106.437V111.504H46.3039H51.3933V116.597V121.664H56.5087H61.598V126.731V131.799H66.6874H71.7766V136.866V141.933H76.866H81.9554V147H87.0446V141.933H92.134H97.2234V136.866V131.799H102.313H107.402V126.731V121.664H112.491H117.607V116.597V111.504H122.696H127.785V106.437V101.37H132.875H137.964V96.3023V91.2353H143.053H148.143V86.168V81.1008H153.232H158.321V76.0337V70.9665H163.411V65.8992V60.8321V55.7649H168.5V50.6719V45.6047V40.5375V35.4704H163.411V30.4031ZM158.321 40.5375V45.6047V50.6719H153.232V45.6047V40.5375V35.4704H148.143V30.4031V25.3359H143.053H137.964V20.2688H132.875H127.785V15.2016H122.696H117.607V20.2688H112.491H107.402V15.2016H112.491H117.607V10.1345H122.696H127.785V15.2016H132.875H137.964V20.2688H143.053H148.143V25.3359H153.232V30.4031V35.4704H158.321V40.5375Z" fill="url(#paint0_linear_449_749)"/>
<path d="M163.411 25.3359H164.411V24.3359H163.411V25.3359ZM158.321 25.3359H157.321V26.3359H158.321V25.3359ZM158.321 15.2016H159.321V14.2016H158.321V15.2016ZM153.232 15.2016H152.232V16.2016H153.232V15.2016ZM153.232 10.1345H154.232V9.13448H153.232V10.1345ZM143.053 10.1345H142.053V11.1345H143.053V10.1345ZM143.053 5.06724H144.053V4.06724H143.053V5.06724ZM132.875 5.06724H131.875V6.06724H132.875V5.06724ZM132.875 0H133.875V-1H132.875V0ZM112.491 0V-1H111.491V0H112.491ZM112.491 5.06724V6.06724H113.491V5.06724H112.491ZM102.313 5.06724V4.06724H101.313V5.06724H102.313ZM102.313 10.1345V11.1345H103.313V10.1345H102.313ZM92.134 10.1345V9.13448H91.134V10.1345H92.134ZM92.134 15.2016V16.2016H93.134V15.2016H92.134ZM87.0446 15.2016V14.2016H86.0446V15.2016H87.0446ZM87.0446 25.3359V26.3359H88.0446V25.3359H87.0446ZM81.9554 25.3359H80.9554V26.3359H81.9554V25.3359ZM81.9554 15.2016H82.9554V14.2016H81.9554V15.2016ZM76.866 15.2016H75.866V16.2016H76.866V15.2016ZM76.866 10.1345H77.866V9.13448H76.866V10.1345ZM66.6874 10.1345H65.6874V11.1345H66.6874V10.1345ZM66.6874 5.06724H67.6874V4.06724H66.6874V5.06724ZM56.5087 5.06724H55.5087V6.06724H56.5087V5.06724ZM56.5087 0H57.5087V-1H56.5087V0ZM36.1253 0V-1H35.1253V0H36.1253ZM36.1253 5.06724V6.06724H37.1253V5.06724H36.1253ZM25.9467 5.06724V4.06724H24.9467V5.06724H25.9467ZM25.9467 10.1345V11.1345H26.9467V10.1345H25.9467ZM15.768 10.1345V9.13448H14.768V10.1345H15.768ZM15.768 15.2016V16.2016H16.768V15.2016H15.768ZM10.6786 15.2016V14.2016H9.67863V15.2016H10.6786ZM10.6786 25.3359V26.3359H11.6786V25.3359H10.6786ZM5.58924 25.3359V24.3359H4.58924V25.3359H5.58924ZM5.58924 35.4704V36.4704H6.58924V35.4704H5.58924ZM0.5 35.4704V34.4704H-0.5V35.4704H0.5ZM0.5 55.7649H-0.5V56.7649H0.5V55.7649ZM5.58924 55.7649H6.58924V54.7649H5.58924V55.7649ZM5.58924 70.9665H4.58924V71.9665H5.58924V70.9665ZM10.6786 70.9665H11.6786V69.9665H10.6786V70.9665ZM10.6786 81.1008H9.67863V82.1008H10.6786V81.1008ZM20.8573 81.1008H21.8573V80.1008H20.8573V81.1008ZM20.8573 91.2353H19.8573V92.2353H20.8573V91.2353ZM31.0359 91.2353H32.0359V90.2353H31.0359V91.2353ZM31.0359 101.37H30.0359V102.37H31.0359V101.37ZM41.2147 101.37H42.2147V100.37H41.2147V101.37ZM41.2147 111.504H40.2147V112.504H41.2147V111.504ZM51.3933 111.504H52.3933V110.504H51.3933V111.504ZM51.3933 121.664H50.3933V122.664H51.3933V121.664ZM61.598 121.664H62.598V120.664H61.598V121.664ZM61.598 131.799H60.598V132.799H61.598V131.799ZM71.7766 131.799H72.7766V130.799H71.7766V131.799ZM71.7766 141.933H70.7766V142.933H71.7766V141.933ZM81.9554 141.933H82.9554V140.933H81.9554V141.933ZM81.9554 147H80.9554V148H81.9554V147ZM87.0446 147V148H88.0446V147H87.0446ZM87.0446 141.933V140.933H86.0446V141.933H87.0446ZM97.2234 141.933V142.933H98.2234V141.933H97.2234ZM97.2234 131.799V130.799H96.2234V131.799H97.2234ZM107.402 131.799V132.799H108.402V131.799H107.402ZM107.402 121.664V120.664H106.402V121.664H107.402ZM117.607 121.664V122.664H118.607V121.664H117.607ZM117.607 111.504V110.504H116.607V111.504H117.607ZM127.785 111.504V112.504H128.785V111.504H127.785ZM127.785 101.37V100.37H126.785V101.37H127.785ZM137.964 101.37V102.37H138.964V101.37H137.964ZM137.964 91.2353V90.2353H136.964V91.2353H137.964ZM148.143 91.2353V92.2353H149.143V91.2353H148.143ZM148.143 81.1008V80.1008H147.143V81.1008H148.143ZM158.321 81.1008V82.1008H159.321V81.1008H158.321ZM158.321 70.9665V69.9665H157.321V70.9665H158.321ZM163.411 70.9665V71.9665H164.411V70.9665H163.411ZM163.411 55.7649V54.7649H162.411V55.7649H163.411ZM168.5 55.7649V56.7649H169.5V55.7649H168.5ZM168.5 35.4704H169.5V34.4704H168.5V35.4704ZM163.411 35.4704H162.411V36.4704H163.411V35.4704ZM158.321 50.6719V51.6719H159.321V50.6719H158.321ZM153.232 50.6719H152.232V51.6719H153.232V50.6719ZM148.143 35.4704H147.143V36.4704H148.143V35.4704ZM137.964 25.3359H136.964V26.3359H137.964V25.3359ZM127.785 20.2688H126.785V21.2688H127.785V20.2688ZM117.607 20.2688V21.2688H118.607V20.2688H117.607ZM107.402 20.2688H106.402V21.2688H107.402V20.2688ZM107.402 15.2016V14.2016H106.402V15.2016H107.402ZM117.607 10.1345V9.13448H116.607V10.1345H117.607ZM127.785 10.1345H128.785V9.13448H127.785V10.1345ZM137.964 15.2016H138.964V14.2016H137.964V15.2016ZM148.143 20.2688H149.143V19.2688H148.143V20.2688ZM153.232 25.3359H154.232V24.3359H153.232V25.3359ZM158.321 35.4704H159.321V34.4704H158.321V35.4704ZM164.411 30.4031V25.3359H162.411V30.4031H164.411ZM163.411 24.3359H158.321V26.3359H163.411V24.3359ZM159.321 25.3359V20.2688H157.321V25.3359H159.321ZM159.321 20.2688V15.2016H157.321V20.2688H159.321ZM158.321 14.2016H153.232V16.2016H158.321V14.2016ZM154.232 15.2016V10.1345H152.232V15.2016H154.232ZM153.232 9.13448H148.143V11.1345H153.232V9.13448ZM148.143 9.13448H143.053V11.1345H148.143V9.13448ZM144.053 10.1345V5.06724H142.053V10.1345H144.053ZM143.053 4.06724H137.964V6.06724H143.053V4.06724ZM137.964 4.06724H132.875V6.06724H137.964V4.06724ZM133.875 5.06724V0H131.875V5.06724H133.875ZM132.875 -1H127.785V1H132.875V-1ZM127.785 -1H122.696V1H127.785V-1ZM122.696 -1H117.607V1H122.696V-1ZM117.607 -1H112.491V1H117.607V-1ZM111.491 0V5.06724H113.491V0H111.491ZM112.491 4.06724H107.402V6.06724H112.491V4.06724ZM107.402 4.06724H102.313V6.06724H107.402V4.06724ZM101.313 5.06724V10.1345H103.313V5.06724H101.313ZM102.313 9.13448H97.2234V11.1345H102.313V9.13448ZM97.2234 9.13448H92.134V11.1345H97.2234V9.13448ZM91.134 10.1345V15.2016H93.134V10.1345H91.134ZM92.134 14.2016H87.0446V16.2016H92.134V14.2016ZM86.0446 15.2016V20.2688H88.0446V15.2016H86.0446ZM86.0446 20.2688V25.3359H88.0446V20.2688H86.0446ZM87.0446 24.3359H81.9554V26.3359H87.0446V24.3359ZM82.9554 25.3359V20.2688H80.9554V25.3359H82.9554ZM82.9554 20.2688V15.2016H80.9554V20.2688H82.9554ZM81.9554 14.2016H76.866V16.2016H81.9554V14.2016ZM77.866 15.2016V10.1345H75.866V15.2016H77.866ZM76.866 9.13448H71.7766V11.1345H76.866V9.13448ZM71.7766 9.13448H66.6874V11.1345H71.7766V9.13448ZM67.6874 10.1345V5.06724H65.6874V10.1345H67.6874ZM66.6874 4.06724H61.598V6.06724H66.6874V4.06724ZM61.598 4.06724H56.5087V6.06724H61.598V4.06724ZM57.5087 5.06724V0H55.5087V5.06724H57.5087ZM56.5087 -1H51.3933V1H56.5087V-1ZM51.3933 -1H46.3039V1H51.3933V-1ZM46.3039 -1H41.2147V1H46.3039V-1ZM41.2147 -1H36.1253V1H41.2147V-1ZM35.1253 0V5.06724H37.1253V0H35.1253ZM36.1253 4.06724H31.0359V6.06724H36.1253V4.06724ZM31.0359 4.06724H25.9467V6.06724H31.0359V4.06724ZM24.9467 5.06724V10.1345H26.9467V5.06724H24.9467ZM25.9467 9.13448H20.8573V11.1345H25.9467V9.13448ZM20.8573 9.13448H15.768V11.1345H20.8573V9.13448ZM14.768 10.1345V15.2016H16.768V10.1345H14.768ZM15.768 14.2016H10.6786V16.2016H15.768V14.2016ZM9.67863 15.2016V20.2688H11.6786V15.2016H9.67863ZM9.67863 20.2688V25.3359H11.6786V20.2688H9.67863ZM10.6786 24.3359H5.58924V26.3359H10.6786V24.3359ZM4.58924 25.3359V30.4031H6.58924V25.3359H4.58924ZM4.58924 30.4031V35.4704H6.58924V30.4031H4.58924ZM5.58924 34.4704H0.5V36.4704H5.58924V34.4704ZM-0.5 35.4704V40.5375H1.5V35.4704H-0.5ZM-0.5 40.5375V45.6047H1.5V40.5375H-0.5ZM-0.5 45.6047V50.6719H1.5V45.6047H-0.5ZM-0.5 50.6719V55.7649H1.5V50.6719H-0.5ZM0.5 56.7649H5.58924V54.7649H0.5V56.7649ZM4.58924 55.7649V60.8321H6.58924V55.7649H4.58924ZM4.58924 60.8321V65.8992H6.58924V60.8321H4.58924ZM4.58924 65.8992V70.9665H6.58924V65.8992H4.58924ZM5.58924 71.9665H10.6786V69.9665H5.58924V71.9665ZM9.67863 70.9665V76.0337H11.6786V70.9665H9.67863ZM9.67863 76.0337V81.1008H11.6786V76.0337H9.67863ZM10.6786 82.1008H15.768V80.1008H10.6786V82.1008ZM15.768 82.1008H20.8573V80.1008H15.768V82.1008ZM19.8573 81.1008V86.168H21.8573V81.1008H19.8573ZM19.8573 86.168V91.2353H21.8573V86.168H19.8573ZM20.8573 92.2353H25.9467V90.2353H20.8573V92.2353ZM25.9467 92.2353H31.0359V90.2353H25.9467V92.2353ZM30.0359 91.2353V96.3023H32.0359V91.2353H30.0359ZM30.0359 96.3023V101.37H32.0359V96.3023H30.0359ZM31.0359 102.37H36.1253V100.37H31.0359V102.37ZM36.1253 102.37H41.2147V100.37H36.1253V102.37ZM40.2147 101.37V106.437H42.2147V101.37H40.2147ZM40.2147 106.437V111.504H42.2147V106.437H40.2147ZM41.2147 112.504H46.3039V110.504H41.2147V112.504ZM46.3039 112.504H51.3933V110.504H46.3039V112.504ZM50.3933 111.504V116.597H52.3933V111.504H50.3933ZM50.3933 116.597V121.664H52.3933V116.597H50.3933ZM51.3933 122.664H56.5087V120.664H51.3933V122.664ZM56.5087 122.664H61.598V120.664H56.5087V122.664ZM60.598 121.664V126.731H62.598V121.664H60.598ZM60.598 126.731V131.799H62.598V126.731H60.598ZM61.598 132.799H66.6874V130.799H61.598V132.799ZM66.6874 132.799H71.7766V130.799H66.6874V132.799ZM70.7766 131.799V136.866H72.7766V131.799H70.7766ZM70.7766 136.866V141.933H72.7766V136.866H70.7766ZM71.7766 142.933H76.866V140.933H71.7766V142.933ZM76.866 142.933H81.9554V140.933H76.866V142.933ZM80.9554 141.933V147H82.9554V141.933H80.9554ZM81.9554 148H87.0446V146H81.9554V148ZM88.0446 147V141.933H86.0446V147H88.0446ZM87.0446 142.933H92.134V140.933H87.0446V142.933ZM92.134 142.933H97.2234V140.933H92.134V142.933ZM98.2234 141.933V136.866H96.2234V141.933H98.2234ZM98.2234 136.866V131.799H96.2234V136.866H98.2234ZM97.2234 132.799H102.313V130.799H97.2234V132.799ZM102.313 132.799H107.402V130.799H102.313V132.799ZM108.402 131.799V126.731H106.402V131.799H108.402ZM108.402 126.731V121.664H106.402V126.731H108.402ZM107.402 122.664H112.491V120.664H107.402V122.664ZM112.491 122.664H117.607V120.664H112.491V122.664ZM118.607 121.664V116.597H116.607V121.664H118.607ZM118.607 116.597V111.504H116.607V116.597H118.607ZM117.607 112.504H122.696V110.504H117.607V112.504ZM122.696 112.504H127.785V110.504H122.696V112.504ZM128.785 111.504V106.437H126.785V111.504H128.785ZM128.785 106.437V101.37H126.785V106.437H128.785ZM127.785 102.37H132.875V100.37H127.785V102.37ZM132.875 102.37H137.964V100.37H132.875V102.37ZM138.964 101.37V96.3023H136.964V101.37H138.964ZM138.964 96.3023V91.2353H136.964V96.3023H138.964ZM137.964 92.2353H143.053V90.2353H137.964V92.2353ZM143.053 92.2353H148.143V90.2353H143.053V92.2353ZM149.143 91.2353V86.168H147.143V91.2353H149.143ZM149.143 86.168V81.1008H147.143V86.168H149.143ZM148.143 82.1008H153.232V80.1008H148.143V82.1008ZM153.232 82.1008H158.321V80.1008H153.232V82.1008ZM159.321 81.1008V76.0337H157.321V81.1008H159.321ZM159.321 76.0337V70.9665H157.321V76.0337H159.321ZM158.321 71.9665H163.411V69.9665H158.321V71.9665ZM164.411 70.9665V65.8992H162.411V70.9665H164.411ZM164.411 65.8992V60.8321H162.411V65.8992H164.411ZM164.411 60.8321V55.7649H162.411V60.8321H164.411ZM163.411 56.7649H168.5V54.7649H163.411V56.7649ZM169.5 55.7649V50.6719H167.5V55.7649H169.5ZM169.5 50.6719V45.6047H167.5V50.6719H169.5ZM169.5 45.6047V40.5375H167.5V45.6047H169.5ZM169.5 40.5375V35.4704H167.5V40.5375H169.5ZM168.5 34.4704H163.411V36.4704H168.5V34.4704ZM164.411 35.4704V30.4031H162.411V35.4704H164.411ZM157.321 40.5375V45.6047H159.321V40.5375H157.321ZM157.321 45.6047V50.6719H159.321V45.6047H157.321ZM158.321 49.6719H153.232V51.6719H158.321V49.6719ZM154.232 50.6719V45.6047H152.232V50.6719H154.232ZM154.232 45.6047V40.5375H152.232V45.6047H154.232ZM154.232 40.5375V35.4704H152.232V40.5375H154.232ZM153.232 34.4704H148.143V36.4704H153.232V34.4704ZM149.143 35.4704V30.4031H147.143V35.4704H149.143ZM149.143 30.4031V25.3359H147.143V30.4031H149.143ZM148.143 24.3359H143.053V26.3359H148.143V24.3359ZM143.053 24.3359H137.964V26.3359H143.053V24.3359ZM138.964 25.3359V20.2688H136.964V25.3359H138.964ZM137.964 19.2688H132.875V21.2688H137.964V19.2688ZM132.875 19.2688H127.785V21.2688H132.875V19.2688ZM128.785 20.2688V15.2016H126.785V20.2688H128.785ZM127.785 14.2016H122.696V16.2016H127.785V14.2016ZM122.696 14.2016H117.607V16.2016H122.696V14.2016ZM116.607 15.2016V20.2688H118.607V15.2016H116.607ZM117.607 19.2688H112.491V21.2688H117.607V19.2688ZM112.491 19.2688H107.402V21.2688H112.491V19.2688ZM108.402 20.2688V15.2016H106.402V20.2688H108.402ZM107.402 16.2016H112.491V14.2016H107.402V16.2016ZM112.491 16.2016H117.607V14.2016H112.491V16.2016ZM118.607 15.2016V10.1345H116.607V15.2016H118.607ZM117.607 11.1345H122.696V9.13448H117.607V11.1345ZM122.696 11.1345H127.785V9.13448H122.696V11.1345ZM126.785 10.1345V15.2016H128.785V10.1345H126.785ZM127.785 16.2016H132.875V14.2016H127.785V16.2016ZM132.875 16.2016H137.964V14.2016H132.875V16.2016ZM136.964 15.2016V20.2688H138.964V15.2016H136.964ZM137.964 21.2688H143.053V19.2688H137.964V21.2688ZM143.053 21.2688H148.143V19.2688H143.053V21.2688ZM147.143 20.2688V25.3359H149.143V20.2688H147.143ZM148.143 26.3359H153.232V24.3359H148.143V26.3359ZM152.232 25.3359V30.4031H154.232V25.3359H152.232ZM152.232 30.4031V35.4704H154.232V30.4031H152.232ZM153.232 36.4704H158.321V34.4704H153.232V36.4704ZM157.321 35.4704V40.5375H159.321V35.4704H157.321Z" fill="url(#paint1_linear_449_749)" mask="url(#path-1-inside-1_449_749)"/>
<defs>
<linearGradient id="paint0_linear_449_749" x1="15.7727" y1="-57.1667" x2="176.207" y2="93.9614" gradientUnits="userSpaceOnUse">
<stop stop-color="#D3CEFF"/>
<stop offset="0.643312" stop-opacity="0"/>
<stop offset="1" stop-color="#8073FF"/>
</linearGradient>
<linearGradient id="paint1_linear_449_749" x1="0.500001" y1="50.6748" x2="172.589" y2="89.0381" gradientUnits="userSpaceOnUse">
<stop stop-color="#2551F4"/>
<stop offset="0.14412" stop-color="#00DDFC"/>
<stop offset="0.32191" stop-color="#77F178"/>
<stop offset="0.502644" stop-color="#FFEF58"/>
<stop offset="0.677235" stop-color="#FFB100"/>
<stop offset="0.824473" stop-color="#FF4EF4"/>
<stop offset="0.954213" stop-color="#3250F4"/>
</linearGradient>
</defs>
</svg>
