<svg width="120" height="120" viewBox="0 0 120 120" fill="none" xmlns="http://www.w3.org/2000/svg">
<g id="Group">
<g id="Group_2">
<path id="Vector" d="M72.0007 24.9996H82.9996V47.9993V48.9993H83.9996H95.0004V82.9996H73.0007V73.0007H83.9996H84.9996V72.0007V60V59H83.9996H72.0007H71.0007V60V71.0007H60H59V72.0007V82.9996H47.9993H46.9993V83.9996V106.999H36.0004H35.0004V107.999V119H1V97.0004H11.0007V107.999V108.999H12.0007H23.9996H24.9996V107.999V84.9996H36.0004H37.0004V83.9996V73.0007H47.9993H48.9993V72.0007V60V59H47.9993H24.9996V47.9993V46.9993H23.9996H12.0007H11.0007V47.9993V59H1V1H11.0007V36.0004V37.0004H12.0007H23.9996H24.9996V36.0004V13.0007H46.9993V36.0004V37.0004H47.9993H60H61V36.0004V13.0007H71.0007V23.9996V24.9996H72.0007ZM108.999 35.0004V24.9996H119V35.0004H108.999ZM106.999 37.0004V46.9993H97.0004V37.0004H106.999ZM22.9996 82.9996H13.0007V61H22.9996V82.9996ZM73.0007 11.0007V1H82.9996V11.0007H73.0007ZM97.0004 84.9996H119V119H97.0004V108.999H107.999H108.999V107.999V96.0004V95.0004H107.999H97.0004V84.9996ZM95.0004 97.0004V106.999H84.9996V97.0004H95.0004ZM82.9996 108.999V119H73.0007V108.999H82.9996ZM71.0007 106.999H61V97.0004H71.0007V106.999ZM59 108.999V119H48.9993V108.999H59ZM119 1V11.0007H108.999V1H119Z" fill="url(#paint0_linear_421_308)" stroke="url(#paint1_linear_421_308)" stroke-width="2"/>
</g>
</g>
<defs>
<linearGradient id="paint0_linear_421_308" x1="10.9091" y1="-46.6667" x2="139.697" y2="59.4856" gradientUnits="userSpaceOnUse">
<stop stop-color="#D3CEFF"/>
<stop offset="0.643312" stop-opacity="0"/>
<stop offset="1" stop-color="#8073FF"/>
</linearGradient>
<linearGradient id="paint1_linear_421_308" x1="1.01985e-06" y1="41.3672" x2="124.3" y2="65.6133" gradientUnits="userSpaceOnUse">
<stop stop-color="#2551F4"/>
<stop offset="0.14412" stop-color="#00DDFC"/>
<stop offset="0.32191" stop-color="#77F178"/>
<stop offset="0.502644" stop-color="#FFEF58"/>
<stop offset="0.677235" stop-color="#FFB100"/>
<stop offset="0.824473" stop-color="#FF4EF4"/>
<stop offset="0.954213" stop-color="#3250F4"/>
</linearGradient>
</defs>
</svg>
